<svg width="40" height="40" viewBox="0 0 40 40" fill="none" xmlns="http://www.w3.org/2000/svg">
<g clip-path="url('#clip0')">
<path d="M20 40C31.0457 40 40 31.0457 40 20C40 8.9543 31.0457 0 20 0C8.9543 0 0 8.9543 0 20C0 31.0457 8.9543 40 20 40Z" fill="#3C5A9A"></path>
<path d="M26.5032 6.13867H22.0727C19.4435 6.13867 16.5191 7.24448 16.5191 11.0556C16.532 12.3836 16.5191 13.6553 16.5191 15.0866H13.4775V19.9268H16.6133V33.8607H22.3753V19.8348H26.1785L26.5226 15.0731H22.276C22.276 15.0731 22.2855 12.9548 22.276 12.3397C22.276 10.8336 23.8431 10.9199 23.9374 10.9199C24.6831 10.9199 26.1331 10.922 26.5053 10.9199V6.13867H26.5032V6.13867Z" fill="white"></path>
</g>
<defs>
<clipPath id="clip0">
<rect width="40" height="40" fill="white"></rect>
</clipPath>
</defs>
</svg>
